<?xml version="1.0" encoding="UTF-8"?>
<!DOCTYPE svg PUBLIC "-//W3C//DTD SVG 1.1//EN" "http://www.w3.org/Graphics/SVG/1.1/DTD/svg11.dtd">
<!-- Creator: CorelDRAW -->
<svg xmlns="http://www.w3.org/2000/svg" xml:space="preserve" width="500px" height="260px" style="shape-rendering:geometricPrecision; text-rendering:geometricPrecision; image-rendering:optimizeQuality; fill-rule:evenodd; clip-rule:evenodd"
viewBox="0 0 193.174 100.534"
 xmlns:xlink="http://www.w3.org/1999/xlink">
 <defs>
  <style type="text/css">
   <![CDATA[
    .str0 {stroke:#1F1A17;stroke-width:0.173701}
    .str1 {stroke:#3BB3C2;stroke-width:0.173701}
    .str3 {stroke:#DA251D;stroke-width:0.173701}
    .str4 {stroke:#DEDEDD;stroke-width:0.173701}
    .str2 {stroke:white;stroke-width:0.173701}
    .str5 {stroke:#1F1A17;stroke-width:1.60821}
    .fil0 {fill:none}
    .fil5 {fill:none;fill-rule:nonzero}
    .fil1 {fill:#3BB3C2}
    .fil3 {fill:#DA251D}
    .fil2 {fill:white}
    .fil9 {fill:#010101}
    .fil8 {fill:#6F6F6F}
    .fil7 {fill:#FBFBFB}
    .fil6 {fill:#1F1A17;fill-rule:nonzero}
    .fil4 {fill:white;fill-rule:nonzero}
   ]]>
  </style>
 </defs>
 <g id="Layer_x0020_1">
  <metadata id="CorelCorpID_0Corel-Layer"/>
  <rect class="fil0 str0" x="0.0868635" y="0.0867358" width="193.001" height="100.36"/>
  <g id="_124125408">
   <circle id="_96416472" class="fil1 str1" cx="36.1174" cy="58.8765" r="16.193"/>
   <g>
    <rect id="_96543288" class="fil0 str2" x="29.7146" y="48.9625" width="12.8056" height="19.8281" rx="4.31448" ry="4.31448"/>
    <rect id="_125171040" class="fil2 str2" x="31.4931" y="50.4691" width="9.24851" height="14.3204" rx="4.31448" ry="4.31448"/>
    <ellipse id="_96542808" class="fil2 str2" cx="36.4251" cy="67.1593" rx="0.623581" ry="0.831474"/>
   </g>
   <rect id="_124131288" class="fil3 str3" x="18.2721" y="72.7083" width="35.3601" height="9.97789" rx="2.58841" ry="2.58841"/>
   <path id="_125173608" class="fil4" d="M26.4672 79.6711l-2.75208 0 0 -1.24189 2.75208 -3.2709 1.31643 0 0 3.34066 0.682265 0 0 1.17214 -0.682265 0 0 1.01644 -1.31643 0 0 -1.01644zm0 -1.17214l0 -1.70897 -1.45457 1.70897 1.45457 0z"/>
   <path id="_1251736081" class="fil4" d="M31.9155 78.7178l0 -1.13042 2.59502 0 0 2.31783c-0.496255,0.338055 -0.935521,0.569656 -1.3178,0.691155 -0.382278,0.122867 -0.83545,0.183503 -1.35951,0.183503 -0.645564,0 -1.171,-0.110102 -1.57744,-0.330305 -0.407581,-0.219063 -0.722613,-0.54686 -0.945551,-0.982252 -0.224078,-0.435619 -0.336687,-0.934153 -0.336687,-1.49765 0,-0.593591 0.122867,-1.11013 0.367233,-1.5494 0.245506,-0.437899 0.603621,-0.770939 1.07594,-0.998664 0.368373,-0.17598 0.864628,-0.263286 1.4874,-0.263286 0.599974,0 1.04927,0.0544809 1.34812,0.163215 0.297479,0.108962 0.544353,0.277191 0.741761,0.506285 0.196268,0.227953 0.34421,0.51791 0.443142,0.869643l-1.62029 0.288817c-0.0672463,-0.205158 -0.181223,-0.362218 -0.340562,-0.470952 -0.1582,-0.108962 -0.36199,-0.163443 -0.608864,-0.163443 -0.368373,0 -0.662205,0.127882 -0.88104,0.383646 -0.219063,0.256904 -0.329165,0.660837 -0.329165,1.21522 0,0.588576 0.111469,1.00892 0.332812,1.26081 0.220431,0.251889 0.529308,0.378403 0.925491,0.378403 0.187378,0 0.367005,-0.0278103 0.536602,-0.0822912 0.170965,-0.0542529 0.367233,-0.146802 0.586068,-0.277191l0 -0.512667 -1.12267 0z"/>
   <polygon id="_12517360812" class="fil4" points="36.3132,75.1583 37.0853,75.1583 35.7194,80.7762 34.9562,80.7762 "/>
   <path id="_125173608123" class="fil4" d="M38.8385 76.8228l-1.4279 -0.255764c0.118992,-0.454311 0.346945,-0.803764 0.684772,-1.04539 0.338055,-0.241859 0.81539,-0.363358 1.43314,-0.363358 0.710075,0 1.22274,0.131529 1.53914,0.396183 0.316627,0.264654 0.474827,0.597466 0.474827,0.997524 0,0.235476 -0.0647388,0.448157 -0.192393,0.638042 -0.12925,0.191025 -0.322782,0.358115 -0.582421,0.50127 0.210173,0.0517454 0.37088,0.112609 0.48235,0.180995 0.179627,0.111241 0.320275,0.258271 0.420346,0.440406 0.0998436,0.180995 0.150449,0.397551 0.150449,0.650807 0,0.316399 -0.083431,0.618894 -0.248013,0.90999 -0.16595,0.289957 -0.405073,0.514035 -0.716458,0.670867 -0.311384,0.15706 -0.720333,0.235476 -1.22799,0.235476 -0.493519,0 -0.883548,-0.0581281 -1.16963,-0.173245 -0.286082,-0.116484 -0.52019,-0.287449 -0.70506,-0.51016 -0.183503,-0.224078 -0.32529,-0.505145 -0.423993,-0.84434l1.50882 -0.200143c0.0594959,0.303862 0.151817,0.515175 0.277191,0.633027 0.124007,0.116484 0.283574,0.17598 0.475967,0.17598 0.202651,0 0.372248,-0.0747687 0.506285,-0.222939 0.134265,-0.147942 0.202651,-0.346717 0.202651,-0.593591 0,-0.251889 -0.0658786,-0.446789 -0.1949,-0.586068 -0.130389,-0.137912 -0.306369,-0.207666 -0.52908,-0.207666 -0.117852,0 -0.281067,0.0303178 -0.488732,0.0886739l0.0772762 -1.07845c0.0847987,0.0125374 0.14931,0.0189201 0.196268,0.0189201 0.198547,0 0.36313,-0.0633711 0.496027,-0.189885 0.131757,-0.125374 0.197636,-0.276052 0.197636,-0.448157 0,-0.165722 -0.0494659,-0.298619 -0.14817,-0.397551 -0.0987039,-0.0987039 -0.234108,-0.147942 -0.407581,-0.147942 -0.178488,0 -0.322782,0.0542529 -0.434251,0.160707 -0.111469,0.107594 -0.18601,0.296112 -0.226586,0.565781z"/>
   <path id="_1251736081234" class="fil4" d="M45.4186 78.7178l0 -1.13042 2.59502 0 0 2.31783c-0.496255,0.338055 -0.935521,0.569656 -1.3178,0.691155 -0.382278,0.122867 -0.83545,0.183503 -1.35951,0.183503 -0.645564,0 -1.171,-0.110102 -1.57744,-0.330305 -0.407581,-0.219063 -0.722613,-0.54686 -0.945551,-0.982252 -0.224078,-0.435619 -0.336687,-0.934153 -0.336687,-1.49765 0,-0.593591 0.122867,-1.11013 0.367233,-1.5494 0.245506,-0.437899 0.603621,-0.770939 1.07594,-0.998664 0.368373,-0.17598 0.864628,-0.263286 1.4874,-0.263286 0.599974,0 1.04927,0.0544809 1.34812,0.163215 0.297479,0.108962 0.544353,0.277191 0.741761,0.506285 0.196268,0.227953 0.34421,0.51791 0.443142,0.869643l-1.62029 0.288817c-0.0672463,-0.205158 -0.181223,-0.362218 -0.340562,-0.470952 -0.1582,-0.108962 -0.36199,-0.163443 -0.608864,-0.163443 -0.368373,0 -0.662205,0.127882 -0.88104,0.383646 -0.219063,0.256904 -0.329165,0.660837 -0.329165,1.21522 0,0.588576 0.111469,1.00892 0.332812,1.26081 0.220431,0.251889 0.529308,0.378403 0.925491,0.378403 0.187378,0 0.367005,-0.0278103 0.536602,-0.0822912 0.170965,-0.0542529 0.367233,-0.146802 0.586068,-0.277191l0 -0.512667 -1.12267 0z"/>
   <path id="_12517360812345" class="fil5 str4" d="M26.4672 79.6711l-2.75208 0 0 -1.24189 2.75208 -3.2709 1.31643 0 0 3.34066 0.682265 0 0 1.17214 -0.682265 0 0 1.01644 -1.31643 0 0 -1.01644zm0 -1.17214l0 -1.70897 -1.45457 1.70897 1.45457 0z"/>
   <path id="_125173608123456" class="fil5 str4" d="M31.9155 78.7178l0 -1.13042 2.59502 0 0 2.31783c-0.496255,0.338055 -0.935521,0.569656 -1.3178,0.691155 -0.382278,0.122867 -0.83545,0.183503 -1.35951,0.183503 -0.645564,0 -1.171,-0.110102 -1.57744,-0.330305 -0.407581,-0.219063 -0.722613,-0.54686 -0.945551,-0.982252 -0.224078,-0.435619 -0.336687,-0.934153 -0.336687,-1.49765 0,-0.593591 0.122867,-1.11013 0.367233,-1.5494 0.245506,-0.437899 0.603621,-0.770939 1.07594,-0.998664 0.368373,-0.17598 0.864628,-0.263286 1.4874,-0.263286 0.599974,0 1.04927,0.0544809 1.34812,0.163215 0.297479,0.108962 0.544353,0.277191 0.741761,0.506285 0.196268,0.227953 0.34421,0.51791 0.443142,0.869643l-1.62029 0.288817c-0.0672463,-0.205158 -0.181223,-0.362218 -0.340562,-0.470952 -0.1582,-0.108962 -0.36199,-0.163443 -0.608864,-0.163443 -0.368373,0 -0.662205,0.127882 -0.88104,0.383646 -0.219063,0.256904 -0.329165,0.660837 -0.329165,1.21522 0,0.588576 0.111469,1.00892 0.332812,1.26081 0.220431,0.251889 0.529308,0.378403 0.925491,0.378403 0.187378,0 0.367005,-0.0278103 0.536602,-0.0822912 0.170965,-0.0542529 0.367233,-0.146802 0.586068,-0.277191l0 -0.512667 -1.12267 0z"/>
   <polygon id="_1251736081234567" class="fil5 str4" points="36.3132,75.1583 37.0853,75.1583 35.7194,80.7762 34.9562,80.7762 "/>
   <path id="_12517360812345678" class="fil5 str4" d="M38.8385 76.8228l-1.4279 -0.255764c0.118992,-0.454311 0.346945,-0.803764 0.684772,-1.04539 0.338055,-0.241859 0.81539,-0.363358 1.43314,-0.363358 0.710075,0 1.22274,0.131529 1.53914,0.396183 0.316627,0.264654 0.474827,0.597466 0.474827,0.997524 0,0.235476 -0.0647388,0.448157 -0.192393,0.638042 -0.12925,0.191025 -0.322782,0.358115 -0.582421,0.50127 0.210173,0.0517454 0.37088,0.112609 0.48235,0.180995 0.179627,0.111241 0.320275,0.258271 0.420346,0.440406 0.0998436,0.180995 0.150449,0.397551 0.150449,0.650807 0,0.316399 -0.083431,0.618894 -0.248013,0.90999 -0.16595,0.289957 -0.405073,0.514035 -0.716458,0.670867 -0.311384,0.15706 -0.720333,0.235476 -1.22799,0.235476 -0.493519,0 -0.883548,-0.0581281 -1.16963,-0.173245 -0.286082,-0.116484 -0.52019,-0.287449 -0.70506,-0.51016 -0.183503,-0.224078 -0.32529,-0.505145 -0.423993,-0.84434l1.50882 -0.200143c0.0594959,0.303862 0.151817,0.515175 0.277191,0.633027 0.124007,0.116484 0.283574,0.17598 0.475967,0.17598 0.202651,0 0.372248,-0.0747687 0.506285,-0.222939 0.134265,-0.147942 0.202651,-0.346717 0.202651,-0.593591 0,-0.251889 -0.0658786,-0.446789 -0.1949,-0.586068 -0.130389,-0.137912 -0.306369,-0.207666 -0.52908,-0.207666 -0.117852,0 -0.281067,0.0303178 -0.488732,0.0886739l0.0772762 -1.07845c0.0847987,0.0125374 0.14931,0.0189201 0.196268,0.0189201 0.198547,0 0.36313,-0.0633711 0.496027,-0.189885 0.131757,-0.125374 0.197636,-0.276052 0.197636,-0.448157 0,-0.165722 -0.0494659,-0.298619 -0.14817,-0.397551 -0.0987039,-0.0987039 -0.234108,-0.147942 -0.407581,-0.147942 -0.178488,0 -0.322782,0.0542529 -0.434251,0.160707 -0.111469,0.107594 -0.18601,0.296112 -0.226586,0.565781z"/>
   <path id="_125173608123456789" class="fil5 str4" d="M45.4186 78.7178l0 -1.13042 2.59502 0 0 2.31783c-0.496255,0.338055 -0.935521,0.569656 -1.3178,0.691155 -0.382278,0.122867 -0.83545,0.183503 -1.35951,0.183503 -0.645564,0 -1.171,-0.110102 -1.57744,-0.330305 -0.407581,-0.219063 -0.722613,-0.54686 -0.945551,-0.982252 -0.224078,-0.435619 -0.336687,-0.934153 -0.336687,-1.49765 0,-0.593591 0.122867,-1.11013 0.367233,-1.5494 0.245506,-0.437899 0.603621,-0.770939 1.07594,-0.998664 0.368373,-0.17598 0.864628,-0.263286 1.4874,-0.263286 0.599974,0 1.04927,0.0544809 1.34812,0.163215 0.297479,0.108962 0.544353,0.277191 0.741761,0.506285 0.196268,0.227953 0.34421,0.51791 0.443142,0.869643l-1.62029 0.288817c-0.0672463,-0.205158 -0.181223,-0.362218 -0.340562,-0.470952 -0.1582,-0.108962 -0.36199,-0.163443 -0.608864,-0.163443 -0.368373,0 -0.662205,0.127882 -0.88104,0.383646 -0.219063,0.256904 -0.329165,0.660837 -0.329165,1.21522 0,0.588576 0.111469,1.00892 0.332812,1.26081 0.220431,0.251889 0.529308,0.378403 0.925491,0.378403 0.187378,0 0.367005,-0.0278103 0.536602,-0.0822912 0.170965,-0.0542529 0.367233,-0.146802 0.586068,-0.277191l0 -0.512667 -1.12267 0z"/>
  </g>
  <path class="fil6" d="M24.3828 25.9484l-0.981112 0 0 4.43894c0,0.582193 -0.128566,1.01325 -0.385925,1.28999 -0.257359,0.276508 -0.595187,0.414875 -1.01006,0.414875 -0.443825,0 -0.791227,-0.14475 -1.03582,-0.434251 -0.244366,-0.289501 -0.366777,-0.710759 -0.366777,-1.27061l0 -10.6311c0,-0.601569 0.135176,-1.03901 0.405301,-1.30914 0.270353,-0.270353 0.707796,-0.405301 1.30936,-0.405301l4.55155 0c0.627328,0 1.16439,0.0255308 1.61163,0.0802396 0.447017,0.0515175 0.849127,0.160935 1.2061,0.325062 0.434251,0.183275 0.817213,0.443825 1.15162,0.781652 0.331444,0.34079 0.585385,0.733326 0.755894,1.18353 0.173701,0.447245 0.260551,0.923212 0.260551,1.42836 0,1.02921 -0.289501,1.85281 -0.871694,2.46714 -0.582193,0.617526 -1.46346,1.05178 -2.64403,1.30914 0.495343,0.263742 0.97131,0.656278 1.42494,1.171 0.450436,0.514719 0.855737,1.06135 1.20952,1.64377 0.353784,0.582193 0.630519,1.10649 0.829979,1.57288 0.19604,0.469584 0.295884,0.791227 0.295884,0.964927 0,0.183503 -0.0579002,0.363586 -0.173701,0.543669 -0.1158,0.176892 -0.273544,0.318451 -0.476195,0.424677 -0.202651,0.102807 -0.434251,0.154325 -0.697994,0.154325 -0.312068,0 -0.579002,-0.0738569 -0.791227,-0.222027 -0.212225,-0.147942 -0.395727,-0.334408 -0.550052,-0.559626 -0.154325,-0.225218 -0.363586,-0.559626 -0.627328,-1.00026l-1.12267 -1.8658c-0.40211,-0.685228 -0.762276,-1.20633 -1.07754,-1.5633 -0.318451,-0.356975 -0.640093,-0.601569 -0.968118,-0.733326 -0.325062,-0.131985 -0.736746,-0.199459 -1.23209,-0.199459zm1.60183 -5.8062l-2.58294 0 0 3.79884 2.50589 0c0.672235,0 1.23847,-0.0579002 1.69825,-0.173701 0.456819,-0.1158 0.807411,-0.315032 1.04881,-0.594959 0.241175,-0.279927 0.363358,-0.662661 0.363358,-1.15481 0,-0.382734 -0.0964243,-0.720561 -0.292692,-1.01325 -0.193077,-0.292692 -0.463201,-0.511528 -0.810603,-0.656278 -0.324834,-0.138368 -0.968118,-0.205842 -1.93008,-0.205842z"/>
  <path id="1" class="fil6" d="M43.6059 20.2001l-6.30474 0 0 3.39354 5.8062 0c0.427641,0 0.746092,0.0966523 0.955353,0.28631 0.209033,0.193077 0.315032,0.444053 0.315032,0.759313 0,0.315032 -0.102807,0.5692 -0.308649,0.768659 -0.209033,0.196268 -0.530904,0.295884 -0.961736,0.295884l-5.8062 0 0 3.93083 6.52015 0c0.440634,0 0.772078,0.103035 0.994105,0.305686 0.22499,0.205842 0.334408,0.475967 0.334408,0.813794 0,0.328025 -0.109418,0.591767 -0.334408,0.797609 -0.222027,0.202651 -0.553471,0.305686 -0.994105,0.305686l-7.6043 0c-0.607952,0 -1.04859,-0.135176 -1.31552,-0.405301 -0.266934,-0.270125 -0.398919,-0.707568 -0.398919,-1.30914l0 -10.3867c0,-0.40211 0.0610915,-0.730135 0.180083,-0.984303 0.118992,-0.254168 0.305686,-0.440634 0.559854,-0.556434 0.25394,-0.1158 0.579002,-0.173701 0.974501,-0.173701l7.38888 0c0.447017,0 0.778461,0.0996157 0.993877,0.295884 0.215644,0.199459 0.324834,0.456819 0.324834,0.778461 0,0.328025 -0.10919,0.588576 -0.324834,0.788035 -0.215416,0.196268 -0.54686,0.295884 -0.993877,0.295884z"/>
  <path id="12" class="fil6" d="M49.1096 18.0418l3.64771 0c0.94897,0 1.76276,0.0868503 2.44138,0.263742 0.678845,0.176892 1.29318,0.504917 1.84642,0.987494 1.43793,1.23186 2.15849,3.10404 2.15849,5.61951 0,0.829979 -0.0708935,1.58587 -0.215644,2.27087 -0.14475,0.685228 -0.369741,1.30275 -0.669043,1.85303 -0.302266,0.550052 -0.688192,1.0422 -1.1612,1.47304 -0.369968,0.334636 -0.77527,0.601569 -1.2159,0.801029 -0.437443,0.202651 -0.910218,0.34421 -1.41855,0.424677 -0.504917,0.0804676 -1.07434,0.122183 -1.70806,0.122183l-3.64771 0c-0.508336,0 -0.894261,-0.0772762 -1.15162,-0.231601 -0.257359,-0.154325 -0.424449,-0.369968 -0.501726,-0.649667 -0.0804676,-0.279927 -0.118992,-0.643513 -0.118992,-1.08734l0 -10.1325c0,-0.601569 0.134948,-1.03901 0.405301,-1.30914 0.270125,-0.270353 0.707568,-0.405301 1.30914,-0.405301zm1.08415 2.21297l0 9.37983 2.11974 0c0.466393,0 0.829751,-0.0127654 1.09372,-0.0385241 0.263742,-0.0257587 0.537058,-0.0868503 0.820177,-0.186694 0.283118,-0.102807 0.527484,-0.244366 0.733326,-0.424449 0.936205,-0.791454 1.40579,-2.1553 1.40579,-4.09176 0,-1.36385 -0.205842,-2.38667 -0.617526,-3.06552 -0.411912,-0.678618 -0.92002,-1.10968 -1.52159,-1.29614 -0.604761,-0.183503 -1.3317,-0.276736 -2.18744,-0.276736l-1.8462 0z"/>
  <path id="123" class="fil6" d="M69.2849 29.6346l4.92152 0c0.48896,0 0.86212,0.0998436 1.11948,0.302494 0.257359,0.199459 0.385925,0.472776 0.385925,0.816985 0,0.308877 -0.0996157,0.569428 -0.305686,0.781652 -0.202651,0.215416 -0.514491,0.321642 -0.929594,0.321642l-6.93503 0c-0.473003,0 -0.839553,-0.131985 -1.10352,-0.392536 -0.263742,-0.260551 -0.395499,-0.566008 -0.395499,-0.916601 0,-0.225218 0.0836589,-0.527484 0.254168,-0.900644 0.170281,-0.37316 0.356975,-0.665852 0.556434,-0.881496 0.836361,-0.865311 1.58906,-1.60821 2.2613,-2.22597 0.672235,-0.620717 1.15481,-1.02602 1.44112,-1.22229 0.51791,-0.363586 0.945551,-0.730135 1.28657,-1.09691 0.34421,-0.366777 0.604761,-0.743128 0.784844,-1.13224 0.176892,-0.385925 0.267161,-0.762276 0.267161,-1.13544 0,-0.40211 -0.0966523,-0.759313 -0.28631,-1.07776 -0.193077,-0.318451 -0.453627,-0.562817 -0.784844,-0.739709 -0.328253,-0.176892 -0.68842,-0.263742 -1.07776,-0.263742 -0.823368,0 -1.46984,0.360166 -1.93966,1.08392 -0.0642829,0.093233 -0.170509,0.350592 -0.318451,0.772078 -0.147942,0.421258 -0.312068,0.74632 -0.498534,0.971538 -0.186466,0.22499 -0.456819,0.337599 -0.813794,0.337599 -0.31526,0 -0.57581,-0.102807 -0.781652,-0.308649 -0.209033,-0.209261 -0.312068,-0.492152 -0.312068,-0.849355 0,-0.434251 0.0964243,-0.887879 0.292692,-1.35746 0.193077,-0.472776 0.485769,-0.897453 0.871694,-1.28338 0.386153,-0.382734 0.875113,-0.691611 1.47007,-0.926403 0.591995,-0.234792 1.28999,-0.353784 2.0876,-0.353784 0.958544,0 1.77895,0.151133 2.45757,0.453399 0.440634,0.199459 0.826787,0.476195 1.1612,0.829979 0.331444,0.350592 0.591995,0.755894 0.778461,1.2191 0.183503,0.46001 0.276736,0.939396 0.276736,1.43793 0,0.778461 -0.193077,1.48603 -0.579002,2.12293 -0.386153,0.640093 -0.781652,1.13886 -1.18376,1.49902 -0.40211,0.360166 -1.07434,0.929594 -2.02012,1.70167 -0.945779,0.77185 -1.59545,1.37342 -1.94604,1.80129 -0.151133,0.167318 -0.305686,0.37316 -0.463201,0.611143z"/>
  <path id="1234" class="fil6" d="M90.5728 26.2411l0 2.64722c0,0.35082 -0.0353328,0.633711 -0.102807,0.842972 -0.0708935,0.209033 -0.196268,0.401882 -0.382962,0.5692 -0.186466,0.170509 -0.421258,0.334636 -0.710759,0.492152 -0.836361,0.450436 -1.64058,0.781652 -2.41243,0.987494 -0.772078,0.209261 -1.61482,0.312068 -2.52527,0.312068 -1.06477,0 -2.0297,-0.164127 -2.90458,-0.48896 -0.871694,-0.328025 -1.61801,-0.800801 -2.23235,-1.42494 -0.617754,-0.620717 -1.09053,-1.37342 -1.41855,-2.2613 -0.331444,-0.884687 -0.495343,-1.87537 -0.495343,-2.96909 0,-1.07115 0.160707,-2.05546 0.479158,-2.94653 0.321642,-0.894261 0.794646,-1.65016 1.41536,-2.27087 0.620945,-0.624137 1.38003,-1.1001 2.2711,-1.42813 0.890842,-0.331444 1.9041,-0.495571 3.03315,-0.495571 0.933014,0 1.75319,0.125602 2.47056,0.37316 0.71737,0.247785 1.29637,0.559854 1.74339,0.936205 0.447017,0.376351 0.781652,0.775042 1.01006,1.19653 0.225218,0.421486 0.337827,0.794418 0.337827,1.12267 0,0.350592 -0.128794,0.649667 -0.389345,0.897453 -0.263742,0.250977 -0.57581,0.37316 -0.939168,0.37316 -0.202651,0 -0.395727,-0.0483261 -0.579002,-0.141559 -0.186694,-0.093233 -0.341018,-0.225218 -0.466393,-0.395727 -0.347401,-0.540478 -0.636902,-0.945779 -0.878305,-1.22229 -0.237983,-0.276736 -0.559626,-0.511528 -0.964927,-0.697994 -0.405301,-0.189885 -0.923212,-0.283118 -1.55054,-0.283118 -0.646476,0 -1.22548,0.112609 -1.73381,0.334636 -0.508108,0.221799 -0.945551,0.546632 -1.30595,0.97131 -0.360166,0.421486 -0.636902,0.942588 -0.829751,1.55692 -0.189885,0.617526 -0.28631,1.29956 -0.28631,2.04588 0,1.62121 0.37316,2.86606 1.11606,3.74094 0.74632,0.871694 1.78214,1.30914 3.11384,1.30914 0.649667,0 1.25762,-0.0836589 1.82386,-0.254168 0.569428,-0.170281 1.14501,-0.411684 1.73062,-0.726944l0 -2.24192 -2.16807 0c-0.521102,0 -0.916829,-0.0772762 -1.18376,-0.234792 -0.266934,-0.157744 -0.398919,-0.424677 -0.398919,-0.801029 0,-0.308877 0.112609,-0.562817 0.334636,-0.762276 0.221799,-0.202651 0.527484,-0.302494 0.910218,-0.302494l3.17494 0c0.389117,0 0.720561,0.0353328 0.990686,0.103035 0.270125,0.0706656 0.48896,0.225218 0.653087,0.463201 0.16709,0.237983 0.250749,0.594959 0.250749,1.07434z"/>
  <path id="12345" class="fil6" d="M99.1388 31.8574l-4.22352 0c-0.607952,0 -1.0422,-0.135176 -1.30275,-0.408493 -0.260551,-0.273544 -0.392536,-0.710987 -0.392536,-1.30595l0 -10.3867c0,-0.607952 0.131985,-1.04539 0.398919,-1.31256 0.266934,-0.266934 0.701185,-0.401882 1.29637,-0.401882l4.47769 0c0.659469,0 1.22867,0.0417155 1.71444,0.122183 0.482578,0.0804676 0.916829,0.237983 1.29956,0.469584 0.328025,0.196268 0.614335,0.443825 0.868503,0.743128 0.250977,0.295884 0.440634,0.6271 0.572619,0.987494 0.131757,0.363358 0.199459,0.7429 0.199459,1.14501 0,1.38322 -0.691611,2.39647 -2.07483,3.03657 1.81747,0.57581 2.7245,1.70167 2.7245,3.3744 0,0.772078 -0.199459,1.46688 -0.594959,2.08441 -0.395727,0.620717 -0.929822,1.07754 -1.60206,1.37342 -0.421258,0.173701 -0.903836,0.299303 -1.4507,0.369968 -0.54686,0.0740849 -1.18376,0.109418 -1.91071,0.109418zm-0.209033 -6.13423l-2.91119 0 0 4.03364 3.00443 0c1.89133,0 2.83711,-0.681809 2.83711,-2.04565 0,-0.697994 -0.244366,-1.20314 -0.733326,-1.5184 -0.492152,-0.312068 -1.22251,-0.469584 -2.19702,-0.469584zm-2.91119 -5.58099l0 3.57385 2.56379 0c0.694802,0 1.23505,-0.0677022 1.61482,-0.199459 0.379543,-0.131985 0.669043,-0.382734 0.871694,-0.752702 0.157516,-0.263742 0.234792,-0.559854 0.234792,-0.887879 0,-0.697994 -0.247785,-1.1612 -0.743128,-1.3896 -0.498534,-0.228409 -1.25443,-0.34421 -2.27087,-0.34421l-2.2711 0z"/>
  <path id="123456" class="fil6" d="M120.784 30.2909l-0.659469 -1.73381 -5.61632 0 -0.659469 1.77234c-0.260551,0.691611 -0.479386,1.158 -0.662661,1.39941 -0.180083,0.241175 -0.479386,0.363358 -0.894261,0.363358 -0.350592,0 -0.662661,-0.128566 -0.932786,-0.385925 -0.270125,-0.257359 -0.405301,-0.550052 -0.405301,-0.878305 0,-0.186466 0.0321414,-0.382734 0.093233,-0.582193 0.0642829,-0.202651 0.167318,-0.48235 0.312068,-0.839553l3.5351 -8.97134c0.0998436,-0.257359 0.222027,-0.566008 0.363586,-0.926403 0.141559,-0.363358 0.289501,-0.662661 0.450208,-0.900644 0.160935,-0.237983 0.37316,-0.43106 0.633711,-0.579002 0.260551,-0.147942 0.582193,-0.222027 0.964927,-0.222027 0.389345,0 0.714178,0.0740849 0.974729,0.222027 0.260551,0.147942 0.472776,0.337827 0.633711,0.569428 0.157516,0.231601 0.292692,0.48235 0.405301,0.749511 0.109418,0.266934 0.247785,0.623909 0.418067,1.06796l3.60919 8.91663c0.283118,0.678618 0.424677,1.17077 0.424677,1.47965 0,0.318451 -0.135176,0.611143 -0.40211,0.878077 -0.266934,0.266934 -0.588576,0.40211 -0.964927,0.40211 -0.218835,0 -0.408493,-0.0385241 -0.566236,-0.118992 -0.157516,-0.0772762 -0.289501,-0.183275 -0.395727,-0.318451 -0.105998,-0.135176 -0.221799,-0.34421 -0.343982,-0.624137 -0.122411,-0.279699 -0.228409,-0.524293 -0.31526,-0.739709zm-5.54246 -3.83441l4.13029 0 -2.08441 -5.69998 -2.04588 5.69998z"/>
  <path id="1234567" class="fil6" d="M132.692 30.6221l0 -0.25394c-0.343982,0.395499 -0.685,0.717142 -1.02283,0.964927 -0.334408,0.247557 -0.701185,0.437443 -1.09372,0.566008 -0.392308,0.128794 -0.820177,0.193077 -1.28657,0.193077 -0.614335,0 -1.18376,-0.131757 -1.70806,-0.392308 -0.524293,-0.260551 -0.981112,-0.630519 -1.36385,-1.11629 -0.382962,-0.482578 -0.672463,-1.05178 -0.871694,-1.70486 -0.196268,-0.653087 -0.296112,-1.36065 -0.296112,-2.11974 0,-1.60844 0.392536,-2.86287 1.17738,-3.76032 0.784844,-0.897453 1.82066,-1.34789 3.10085,-1.34789 0.743128,0 1.36704,0.128794 1.87537,0.382734 0.508336,0.254168 1.00687,0.643513 1.48922,1.17419l0 -3.79884c0,-0.527484 0.106226,-0.926403 0.31526,-1.19676 0.212453,-0.270125 0.511528,-0.405301 0.900644,-0.405301 0.389345,0 0.68842,0.125602 0.900872,0.37316 0.209033,0.247785 0.31526,0.614563 0.31526,1.09691l0 11.3452c0,0.48896 -0.112609,0.858929 -0.337827,1.10329 -0.228409,0.244594 -0.521102,0.366777 -0.878305,0.366777 -0.350592,0 -0.643285,-0.128566 -0.871694,-0.382734 -0.228409,-0.254168 -0.34421,-0.614335 -0.34421,-1.08734zm-5.05966 -3.77947c0,0.697994 0.10919,1.29295 0.324834,1.78191 0.215416,0.48896 0.514719,0.858929 0.89107,1.10671 0.376351,0.247557 0.788035,0.372932 1.23505,0.372932 0.450436,0 0.865311,-0.118992 1.23847,-0.353784 0.37316,-0.234792 0.672235,-0.594959 0.894261,-1.08392 0.222027,-0.485769 0.334636,-1.09372 0.334636,-1.82386 0,-0.682037 -0.112609,-1.2738 -0.334636,-1.76596 -0.222027,-0.492152 -0.524293,-0.868503 -0.903836,-1.12905 -0.379543,-0.260551 -0.797837,-0.392536 -1.24805,-0.392536 -0.473003,0 -0.894261,0.131985 -1.26423,0.398919 -0.369968,0.266934 -0.656278,0.652859 -0.86212,1.15162 -0.202651,0.498534 -0.305458,1.07754 -0.305458,1.73701z"/>
  <path id="12345678" class="fil6" d="M144.755 30.6221l0 -0.25394c-0.343982,0.395499 -0.685,0.717142 -1.02283,0.964927 -0.334408,0.247557 -0.701185,0.437443 -1.09372,0.566008 -0.392308,0.128794 -0.820177,0.193077 -1.28657,0.193077 -0.614335,0 -1.18376,-0.131757 -1.70806,-0.392308 -0.524293,-0.260551 -0.981112,-0.630519 -1.36385,-1.11629 -0.382962,-0.482578 -0.672463,-1.05178 -0.871694,-1.70486 -0.196268,-0.653087 -0.296112,-1.36065 -0.296112,-2.11974 0,-1.60844 0.392536,-2.86287 1.17738,-3.76032 0.784844,-0.897453 1.82066,-1.34789 3.10085,-1.34789 0.743128,0 1.36704,0.128794 1.87537,0.382734 0.508336,0.254168 1.00687,0.643513 1.48922,1.17419l0 -3.79884c0,-0.527484 0.106226,-0.926403 0.31526,-1.19676 0.212453,-0.270125 0.511528,-0.405301 0.900644,-0.405301 0.389345,0 0.68842,0.125602 0.900872,0.37316 0.209033,0.247785 0.31526,0.614563 0.31526,1.09691l0 11.3452c0,0.48896 -0.112609,0.858929 -0.337827,1.10329 -0.228409,0.244594 -0.521102,0.366777 -0.878305,0.366777 -0.350592,0 -0.643285,-0.128566 -0.871694,-0.382734 -0.228409,-0.254168 -0.34421,-0.614335 -0.34421,-1.08734zm-5.05966 -3.77947c0,0.697994 0.10919,1.29295 0.324834,1.78191 0.215416,0.48896 0.514719,0.858929 0.89107,1.10671 0.376351,0.247557 0.788035,0.372932 1.23505,0.372932 0.450436,0 0.865311,-0.118992 1.23847,-0.353784 0.37316,-0.234792 0.672235,-0.594959 0.894261,-1.08392 0.222027,-0.485769 0.334636,-1.09372 0.334636,-1.82386 0,-0.682037 -0.112609,-1.2738 -0.334636,-1.76596 -0.222027,-0.492152 -0.524293,-0.868503 -0.903836,-1.12905 -0.379543,-0.260551 -0.797837,-0.392536 -1.24805,-0.392536 -0.473003,0 -0.894261,0.131985 -1.26423,0.398919 -0.369968,0.266934 -0.656278,0.652859 -0.86212,1.15162 -0.202651,0.498534 -0.305458,1.07754 -0.305458,1.73701z"/>
  <path id="123456789" class="fil6" d="M160.851 17.8068c1.43474,0 2.66341,0.289501 3.69285,0.871922 1.02602,0.582193 1.80448,1.40556 2.33196,2.47671 0.527712,1.07115 0.791454,2.329 0.791454,3.77651 0,1.06796 -0.14475,2.03608 -0.434251,2.91097 -0.289501,0.871694 -0.720561,1.63101 -1.29956,2.2711 -0.579002,0.640093 -1.28999,1.12905 -2.12954,1.47007 -0.842744,0.337599 -1.80767,0.508108 -2.89501,0.508108 -1.08073,0 -2.04907,-0.173701 -2.90458,-0.524293 -0.852546,-0.347401 -1.5665,-0.839553 -2.13912,-1.47326 -0.572619,-0.633711 -1.00368,-1.39918 -1.29637,-2.29025 -0.292692,-0.89107 -0.437443,-1.856 -0.437443,-2.89182 0,-1.06158 0.151133,-2.03608 0.456819,-2.92077 0.305458,-0.887879 0.746092,-1.64058 1.32509,-2.2613 0.57923,-0.624137 1.28041,-1.1001 2.11017,-1.42813 0.829979,-0.331444 1.77257,-0.495571 2.82753,-0.495571zm3.97916 7.10577c0,-1.01325 -0.164127,-1.88814 -0.48896,-2.63127 -0.328253,-0.739937 -0.794646,-1.30275 -1.4026,-1.6823 -0.604761,-0.379543 -1.29956,-0.569428 -2.0876,-0.569428 -0.559626,0 -1.07434,0.106226 -1.55031,0.31526 -0.473003,0.212225 -0.881496,0.51791 -1.22571,0.92002 -0.341018,0.40211 -0.611143,0.916829 -0.810603,1.54074 -0.196268,0.624137 -0.295884,1.32851 -0.295884,2.10697 0,0.784844 0.0996157,1.49583 0.295884,2.12954 0.199459,0.633483 0.479386,1.1612 0.839553,1.57926 0.360394,0.418295 0.77527,0.730135 1.24485,0.936205 0.466393,0.209033 0.981112,0.31184 1.54074,0.31184 0.71737,0 1.37365,-0.180083 1.97522,-0.537058 0.601569,-0.357203 1.07754,-0.910446 1.43132,-1.65996 0.357203,-0.746092 0.534095,-1.66611 0.534095,-2.75983z"/>
  <path id="12345678910" class="fil6" d="M172.219 23.0534l0 0.312068c0.453399,-0.598378 0.94897,-1.03582 1.48284,-1.31575 0.537286,-0.279927 1.15481,-0.418067 1.85281,-0.418067 0.678618,0 1.28338,0.147942 1.81747,0.443825 0.533867,0.292692 0.932786,0.710987 1.19653,1.25124 0.170509,0.31526 0.279927,0.653087 0.331444,1.01964 0.0480982,0.363586 0.0738569,0.826787 0.0738569,1.39302l0 4.78953c0,0.514719 -0.118992,0.903836 -0.353784,1.16758 -0.234792,0.26397 -0.540478,0.395727 -0.92002,0.395727 -0.382734,0 -0.691611,-0.135176 -0.932786,-0.405301 -0.237983,-0.270125 -0.356975,-0.656278 -0.356975,-1.158l0 -4.2878c0,-0.849127 -0.11922,-1.49902 -0.354012,-1.94923 -0.234792,-0.447245 -0.704376,-0.672463 -1.40556,-0.672463 -0.46001,0 -0.878305,0.135176 -1.25466,0.408493 -0.376351,0.273544 -0.652859,0.649895 -0.826559,1.12905 -0.125374,0.382962 -0.189885,1.09691 -0.189885,2.14892l0 3.22303c0,0.521102 -0.122183,0.910446 -0.363358,1.171 -0.241403,0.260551 -0.553243,0.392308 -0.936205,0.392308 -0.37316,0 -0.675426,-0.135176 -0.916601,-0.405301 -0.238211,-0.270125 -0.357203,-0.656278 -0.357203,-1.158l0 -7.43698c0,-0.48896 0.106226,-0.855509 0.321642,-1.09691 0.212453,-0.241175 0.505145,-0.363358 0.875113,-0.363358 0.22499,0 0.43106,0.0544809 0.614335,0.160707 0.180083,0.106226 0.328025,0.266934 0.437443,0.479386 0.109418,0.215416 0.164127,0.475967 0.164127,0.781652z"/>
  <line class="fil0 str5" x1="69.7401" y1="47.1987" x2="177.896" y2= "47.1987" />
  <polygon class="fil7" points="107.182,57.0625 108.884,54.5591 107.182,54.5591 "/>
  <polygon class="fil8" points="108.183,69.4793 108.183,67.1815 111.087,67.0762 108.083,67.0762 "/>
  <path class="fil9" d="M118.021 59.5793l0 0.0553927c2.64722,0 4.42594,-0.305458 5.37993,1.49765l-4.43689 0 -0.91227 1.37 5.51556 0.0164127 0 0.166406c0,1.48557 -1.76915,2.44047 -3.38329,2.44047l-1.60844 0.0583561 0 1.27266 5.37993 6.82219 2.44047 0 -5.60173 -7.04399c1.38391,-0.0307737 2.93399,-0.738797 3.64726,-1.45548 0.3743,-0.376123 0.827015,-0.978148 0.990002,-1.56103 0.156148,-0.558486 -0.0314576,-0.707112 0.575583,-0.700273 0.442914,0.00524293 0.888563,0.00068386 1.33034,-0.000227953l0.888791 -1.33011 -2.66227 -0.0574443 0.058584 -0.0250749 -0.685684 -1.48808 2.40195 0.0175524 0.887423 -1.44203 -9.26221 0 -0.943044 1.38664z"/>
  <path class="fil6" d="M145.004 71.5829l0 -1.86329 -5.02957 0c-0.632571,0 -1.10763,-0.143611 -1.42562,-0.430832 -0.317995,-0.287221 -0.475283,-0.677022 -0.475283,-1.17259 0,-0.126514 0.0205158,-0.256448 0.068386,-0.386381 0.0478702,-0.129933 0.116256,-0.266706 0.211997,-0.410316 0.0923212,-0.143611 0.188062,-0.280383 0.290641,-0.413736 0.0991598,-0.133353 0.222255,-0.297479 0.369285,-0.49238l5.30972 -7.10121c0.34535,-0.468444 0.632571,-0.806955 0.854598,-1.01895 0.225674,-0.208577 0.49238,-0.314576 0.806955,-0.314576 1.01553,0 1.52159,0.581281 1.52159,1.74362l0 7.75452 0.430832 0c0.512667,0 0.926403,0.068386 1.23756,0.208577 0.311156,0.140191 0.465025,0.447929 0.465025,0.922984 0,0.386381 -0.126514,0.670183 -0.379543,0.844568 -0.256448,0.177804 -0.63599,0.266706 -1.14205,0.266706l-0.611827 0 0 1.86329c0,0.512895 -0.112837,0.895857 -0.34193,1.14547 -0.225674,0.249609 -0.529992,0.376123 -0.909534,0.376123 -0.372704,0 -0.677022,-0.129933 -0.906115,-0.386381 -0.228865,-0.256448 -0.345122,-0.63599 -0.345122,-1.13521zm-4.30809 -4.10613l4.30809 0 0 -5.8192 -4.30809 5.8192z"/>
  <path id="1" class="fil6" d="M159.504 60.642l-4.75602 0 -0.570796 3.24811c0.946919,-0.509476 1.82226,-0.762504 2.62238,-0.762504 0.642601,0 1.24098,0.119676 1.79832,0.359027 0.557346,0.24277 1.04631,0.574443 1.46688,0.998436 0.420346,0.423993 0.752019,0.926631 0.99137,1.50768 0.24277,0.581281 0.362446,1.20359 0.362446,1.87378 0,0.967435 -0.218835,1.84961 -0.653087,2.64289 -0.434251,0.796697 -1.05976,1.42562 -1.87697,1.89407 -0.817213,0.468444 -1.76071,0.700957 -2.83095,0.700957 -1.19334,0 -2.16419,-0.218835 -2.9096,-0.659925 -0.745408,-0.44109 -1.27198,-0.947147 -1.58314,-1.51794 -0.307509,-0.571023 -0.464797,-1.07024 -0.464797,-1.49765 0,-0.263286 0.109418,-0.509476 0.324834,-0.741989 0.218607,-0.235704 0.488732,-0.35196 0.816985,-0.35196 0.560766,0 0.97792,0.324606 1.25146,0.970854 0.266706,0.594959 0.629152,1.05656 1.08369,1.38824 0.454767,0.331672 0.960824,0.495799 1.52159,0.495799 0.512895,0 0.964243,-0.133353 1.35382,-0.400058 0.386381,-0.266706 0.68386,-0.63599 0.895857,-1.10102 0.208577,-0.468444 0.314576,-0.998436 0.314576,-1.59317 0,-0.642829 -0.112837,-1.18992 -0.34193,-1.64468 -0.225674,-0.451348 -0.529992,-0.789859 -0.909534,-1.0153 -0.382734,-0.222255 -0.806727,-0.335092 -1.27175,-0.335092 -0.574443,0 -0.984759,0.0718053 -1.23437,0.211997 -0.24619,0.140191 -0.601569,0.382734 -1.06659,0.734922 -0.461606,0.348769 -0.844568,0.526573 -1.14547,0.526573 -0.328253,0 -0.618894,-0.119676 -0.871922,-0.355607 -0.253028,-0.239351 -0.379315,-0.506057 -0.379315,-0.806727 0,-0.034193 0.0339651,-0.259867 0.10919,-0.680441l0.841148 -4.80047c0.0923212,-0.574215 0.266706,-0.99137 0.519734,-1.25124 0.256448,-0.259867 0.670183,-0.3898 1.24463,-0.3898l5.2892 0c1.03924,0 1.56239,0.396639 1.56239,1.18992 0,0.348541 -0.126514,0.628924 -0.382962,0.84092 -0.253028,0.215416 -0.625504,0.321414 -1.1213,0.321414z"/>
  <path id="12" class="fil6" d="M173.416 65.6508c0,1.0976 -0.068386,2.0379 -0.201739,2.82412 -0.133353,0.789859 -0.379543,1.50449 -0.738569,2.1439 -0.454539,0.789631 -1.04266,1.39485 -1.76413,1.82226 -0.721473,0.427413 -1.52136,0.642829 -2.40354,0.642829 -1.01553,0 -1.92484,-0.287221 -2.72838,-0.861664 -0.806955,-0.574443 -1.41217,-1.36749 -1.81907,-2.38303 -0.208349,-0.553927 -0.358799,-1.1694 -0.454539,-1.83936 -0.0991598,-0.670183 -0.14703,-1.39508 -0.14703,-2.1781 0,-1.00847 0.0547088,-1.91458 0.160707,-2.72154 0.105998,-0.810147 0.273544,-1.50427 0.49899,-2.08555 0.396639,-0.960824 0.967663,-1.69233 1.71991,-2.19838 0.752246,-0.502637 1.64788,-0.755666 2.68734,-0.755666 0.690699,0 1.31278,0.112837 1.87355,0.335092 0.560766,0.225674 1.05315,0.550508 1.47714,0.98134 0.423993,0.430604 0.78302,0.964015 1.07685,1.59659 0.509476,1.10443 0.762504,2.66341 0.762504,4.67715zm-2.74547 -0.198092c0,-1.22069 -0.0718053,-2.22255 -0.218835,-2.9985 -0.14703,-0.779601 -0.396639,-1.36772 -0.741989,-1.76436 -0.348541,-0.396639 -0.827243,-0.594959 -1.44272,-0.594959 -0.88218,0 -1.49424,0.444509 -1.83594,1.33353 -0.34535,0.885599 -0.516315,2.25309 -0.516315,4.10293 0,1.25466 0.0718053,2.28387 0.218835,3.08375 0.14703,0.803536 0.396639,1.40875 0.741761,1.81907 0.348769,0.410316 0.817213,0.615474 1.41217,0.615474 0.615474,0 1.09418,-0.211997 1.44272,-0.63941 0.34535,-0.427413 0.591539,-1.03947 0.731731,-1.83275 0.140191,-0.796469 0.208577,-1.83594 0.208577,-3.12479z"/>
  <polygon class="fil6" points="102.992,88.6201 102.992,80.497 99.9578,80.497 99.9578,79.4099 107.258,79.4099 107.258,80.497 104.21,80.497 104.21,88.6201 "/>
  <path id="1" class="fil6" d="M107.89 80.7115l0 -1.30161 1.13224 0 0 1.30161 -1.13224 0zm0 7.90862l0 -6.67129 1.13224 0 0 6.67129 -1.13224 0z"/>
  <polygon id="12" class="fil6" points="110.719,88.6201 110.719,79.4099 111.849,79.4099 111.849,88.6201 "/>
  <polygon id="123" class="fil6" points="113.577,88.6201 113.577,79.4099 114.707,79.4099 114.707,88.6201 "/>
  <path id="1234" class="fil6" d="M120.129 88.6201l0 -9.21023 3.45669 0c0.703464,0 1.26742,0.0941448 1.6921,0.278559 0.426729,0.186694 0.759085,0.473915 0.999348,0.86212 0.240035,0.386153 0.362218,0.791454 0.362218,1.2159 0,0.392536 -0.107138,0.763416 -0.321642,1.11082 -0.212225,0.347401 -0.535919,0.628468 -0.966979,0.842744 0.557574,0.162987 0.984303,0.441774 1.28452,0.83431 0.300215,0.394587 0.450208,0.859841 0.450208,1.39599 0,0.43106 -0.0920932,0.83203 -0.274456,1.20291 -0.182363,0.371108 -0.407353,0.656278 -0.675426,0.857789 -0.268073,0.201739 -0.604761,0.351732 -1.00801,0.454767 -0.403022,0.102807 -0.898365,0.154325 -1.48603,0.154325l-3.51254 0zm1.22023 -5.33958l1.99209 0c0.538198,0 0.926403,-0.0364726 1.16233,-0.107366 0.308649,-0.0920932 0.542529,-0.244366 0.699133,-0.45887 0.156376,-0.214504 0.235704,-0.48235 0.235704,-0.80422 0,-0.304318 -0.0727172,-0.574671 -0.218607,-0.806271 -0.147942,-0.233652 -0.358115,-0.392308 -0.628468,-0.478246 -0.272176,-0.0857105 -0.739709,-0.128566 -1.40237,-0.128566l-1.83981 0 0 2.78354zm0 4.25224l2.2923 0c0.394587,0 0.671323,-0.014817 0.829979,-0.0428553 0.280839,-0.0512895 0.514491,-0.134948 0.703236,-0.253028 0.188745,-0.1158 0.34307,-0.287221 0.465481,-0.510388 0.119904,-0.22499 0.182135,-0.48235 0.182135,-0.776182 0,-0.34307 -0.0877621,-0.641233 -0.263742,-0.896313 -0.175752,-0.253028 -0.420346,-0.43106 -0.733326,-0.534095 -0.310929,-0.100755 -0.761365,-0.152273 -1.34675,-0.152273l-2.12931 0 0 3.16513z"/>
  <path id="12345" class="fil6" d="M128.623 80.7115l0 -1.30161 1.13224 0 0 1.30161 -1.13224 0zm0 7.90862l0 -6.67129 1.13224 0 0 6.67129 -1.13224 0z"/>
  <polygon id="123456" class="fil6" points="131.451,88.6201 131.451,79.4099 132.581,79.4099 132.581,88.6201 "/>
  <polygon id="1234567" class="fil6" points="134.31,88.6201 134.31,79.4099 135.44,79.4099 135.44,88.6201 "/>
  <path id="12345678" class="fil6" d="M147.483 85.3907l1.22001 0.308649c-0.25508,0.999348 -0.71623,1.76276 -1.37866,2.29025 -0.66494,0.525433 -1.47554,0.787123 -2.43614,0.787123 -0.992965,0 -1.79924,-0.201739 -2.42109,-0.604761 -0.621857,-0.405301 -1.09577,-0.990686 -1.41969,-1.75638 -0.323694,-0.767747 -0.486681,-1.59112 -0.486681,-2.47033 0,-0.958544 0.182135,-1.79491 0.548912,-2.50908 0.366777,-0.71395 0.887879,-1.25648 1.56536,-1.62759 0.675654,-0.37088 1.41969,-0.555295 2.23235,-0.555295 0.9223,0 1.69643,0.233652 2.32467,0.703236 0.62824,0.469812 1.06568,1.12814 1.31233,1.97932l-1.19858 0.283118c-0.214504,-0.671095 -0.523381,-1.158 -0.930734,-1.4646 -0.405301,-0.306597 -0.915689,-0.45887 -1.53322,-0.45887 -0.707796,0 -1.29751,0.169369 -1.77348,0.508108 -0.476195,0.341018 -0.810603,0.795558 -1.00163,1.36818 -0.192849,0.57034 -0.289501,1.16028 -0.289501,1.7671 0,0.784844 0.113749,1.46665 0.341018,2.05227 0.229549,0.583105 0.583333,1.02055 1.06591,1.31005 0.48235,0.289501 1.00345,0.43334 1.56536,0.43334 0.682037,0 1.25876,-0.197408 1.73267,-0.589716 0.473915,-0.394587 0.793506,-0.979972 0.960824,-1.7541z"/>
  <path id="123456789" class="fil6" d="M150.009 91.1891l-0.126742 -1.06158c0.248925,0.0665624 0.463201,0.100983 0.647844,0.100983 0.250749,0 0.45226,-0.0430832 0.602481,-0.126742 0.152273,-0.083431 0.274456,-0.199231 0.37088,-0.351504 0.0729451,-0.111697 0.186694,-0.392536 0.34535,-0.840692 0.0214276,-0.0642829 0.0558486,-0.154325 0.100755,-0.276736l-2.53028 -6.68405 1.21796 0 1.3896 3.86199c0.178032,0.49124 0.341018,1.00573 0.48235,1.54621 0.130845,-0.518822 0.285398,-1.02511 0.465481,-1.52045l1.42608 -3.88775 1.12997 0 -2.53667 6.78504c-0.272404,0.733326 -0.484857,1.23733 -0.63485,1.51384 -0.201511,0.37316 -0.43106,0.645564 -0.690471,0.819265 -0.261691,0.173701 -0.570568,0.261463 -0.930734,0.261463 -0.218835,0 -0.46115,-0.0469584 -0.728995,-0.13928z"/>
  <path id="12345678910" class="fil6" d="M160.847 86.1755l1.11082 0.145662c-0.120131,0.765696 -0.43106,1.36613 -0.932786,1.79924 -0.499674,0.433112 -1.11515,0.649895 -1.84414,0.649895 -0.911358,0 -1.64696,-0.298163 -2.20021,-0.894261 -0.555523,-0.596326 -0.83431,-1.45184 -0.83431,-2.56698 0,-0.720561 0.120131,-1.35108 0.358115,-1.89133 0.240263,-0.540478 0.602709,-0.945779 1.09167,-1.2159 0.486681,-0.270125 1.0185,-0.405301 1.59112,-0.405301 0.724892,0 1.31871,0.184414 1.77781,0.551192 0.460922,0.366549 0.756806,0.885599 0.887651,1.56103l-1.1001 0.169369c-0.105087,-0.448157 -0.289501,-0.784844 -0.555295,-1.01211 -0.266022,-0.225218 -0.587664,-0.338739 -0.965155,-0.338739 -0.57034,0 -1.03354,0.203562 -1.38938,0.613195 -0.356063,0.407581 -0.534095,1.05292 -0.534095,1.93646 0,0.896313 0.171649,1.54826 0.516771,1.95561 0.34307,0.405301 0.791454,0.609092 1.3447,0.609092 0.443825,0 0.812654,-0.137228 1.11082,-0.409632 0.297935,-0.272176 0.486681,-0.690471 0.566008,-1.25648z"/>
  <polygon id="1234567891011" class="fil6" points="162.901,88.6201 162.901,79.4099 164.031,79.4099 164.031,88.6201 "/>
  <path id="123456789101112" class="fil6" d="M170.351 86.4714l1.16872 0.143611c-0.184642,0.684088 -0.525433,1.21385 -1.02306,1.59112 -0.499674,0.375439 -1.13658,0.564185 -1.91071,0.564185 -0.975641,0 -1.74977,-0.300443 -2.32011,-0.900872 -0.572619,-0.600429 -0.857789,-1.44317 -0.857789,-2.52823 0,-1.12358 0.289501,-1.99436 0.866223,-2.61394 0.579002,-0.619806 1.32737,-0.930734 2.24944,-0.930734 0.89221,0 1.62121,0.304546 2.18539,0.911358 0.566008,0.606812 0.849127,1.46255 0.849127,2.56265 0,0.068614 -0.00227953,0.169369 -0.0063827,0.302266l-4.97508 0c0.0405757,0.733326 0.248697,1.29523 0.621857,1.68344 0.37316,0.390256 0.836361,0.585385 1.39394,0.585385 0.413736,0 0.767519,-0.109418 1.06135,-0.328025 0.293832,-0.216556 0.525433,-0.563957 0.697082,-1.0422zm-3.71222 -1.82933l3.72499 0c-0.049238,-0.559626 -0.193077,-0.982024 -0.426729,-1.26081 -0.360394,-0.435391 -0.827699,-0.653999 -1.40032,-0.653999 -0.51905,0 -0.956493,0.173701 -1.31028,0.521102 -0.353784,0.347401 -0.548912,0.812654 -0.587664,1.39371z"/>
 </g>
</svg>
